<svg xmlns="http://www.w3.org/2000/svg" viewBox="0 0 900 1272" font-family="ui-sans-serif,-apple-system,Segoe UI,Roboto,sans-serif">
<rect width="900" height="1272" fill="#0b0f14"/>
<text x="210" y="30" fill="#e6edf3" font-size="18" font-weight="700">Cross-language benchmarks — median wall-clock (ms), lower is better</text>
<text x="210" y="50" fill="#7d8b9c" font-size="12">2026-08-04T18:16:39Z  ·  cpu: INTEL(R) XEON(R) PLATINUM 8581C CPU @ 2.30GHz  ·  cores: 4  ·  runs: 10  ·  load: 0.14, 0.54, 0.38</text>
<text x="194" y="77" fill="#c8d3e0" font-size="13" font-weight="650" text-anchor="end">fib(40)</text>
<rect x="210" y="64" width="169.3" height="22" rx="3" fill="#4c9be8"/>
<text x="202" y="79" fill="#8b98a8" font-size="11" text-anchor="end">March</text>
<text x="385.3" y="79" fill="#c8d3e0" font-size="11">425.3</text>
<rect x="210" y="92" width="220.8" height="22" rx="3" fill="#e5883a"/>
<text x="202" y="107" fill="#8b98a8" font-size="11" text-anchor="end">OCaml</text>
<text x="436.8" y="107" fill="#c8d3e0" font-size="11">554.7</text>
<rect x="210" y="120" width="106.0" height="22" rx="3" fill="#d0563a"/>
<text x="202" y="135" fill="#8b98a8" font-size="11" text-anchor="end">Rust</text>
<text x="322.0" y="135" fill="#c8d3e0" font-size="11">266.4</text>
<rect x="210" y="148" width="600.0" height="22" rx="3" fill="#9a6fce"/>
<text x="202" y="163" fill="#8b98a8" font-size="11" text-anchor="end">Elixir</text>
<text x="816.0" y="163" fill="#c8d3e0" font-size="11">1507.3</text>
<text x="194" y="215" fill="#c8d3e0" font-size="13" font-weight="650" text-anchor="end">binary-trees(15)</text>
<rect x="210" y="202" width="600.0" height="22" rx="3" fill="#4c9be8"/>
<text x="202" y="217" fill="#8b98a8" font-size="11" text-anchor="end">March</text>
<text x="816.0" y="217" fill="#c8d3e0" font-size="11">527.5</text>
<rect x="210" y="230" width="29.8" height="22" rx="3" fill="#e5883a"/>
<text x="202" y="245" fill="#8b98a8" font-size="11" text-anchor="end">OCaml</text>
<text x="245.8" y="245" fill="#c8d3e0" font-size="11">26.2</text>
<rect x="210" y="258" width="136.6" height="22" rx="3" fill="#d0563a"/>
<text x="202" y="273" fill="#8b98a8" font-size="11" text-anchor="end">Rust</text>
<text x="352.6" y="273" fill="#c8d3e0" font-size="11">120.1</text>
<rect x="210" y="286" width="417.0" height="22" rx="3" fill="#9a6fce"/>
<text x="202" y="301" fill="#8b98a8" font-size="11" text-anchor="end">Elixir</text>
<text x="633.0" y="301" fill="#c8d3e0" font-size="11">366.6</text>
<text x="194" y="353" fill="#c8d3e0" font-size="13" font-weight="650" text-anchor="end">tree-transform(depth=20, 100 passes)</text>
<rect x="210" y="340" width="236.6" height="22" rx="3" fill="#4c9be8"/>
<text x="202" y="355" fill="#8b98a8" font-size="11" text-anchor="end">March</text>
<text x="452.6" y="355" fill="#c8d3e0" font-size="11">2744.9</text>
<rect x="210" y="368" width="600.0" height="22" rx="3" fill="#e5883a"/>
<text x="202" y="383" fill="#8b98a8" font-size="11" text-anchor="end">OCaml</text>
<text x="816.0" y="383" fill="#c8d3e0" font-size="11">6960.2</text>
<rect x="210" y="396" width="372.9" height="22" rx="3" fill="#d0563a"/>
<text x="202" y="411" fill="#8b98a8" font-size="11" text-anchor="end">Rust</text>
<text x="588.9" y="411" fill="#c8d3e0" font-size="11">4326.2</text>
<rect x="210" y="424" width="444.1" height="22" rx="3" fill="#9a6fce"/>
<text x="202" y="439" fill="#8b98a8" font-size="11" text-anchor="end">Elixir</text>
<text x="660.1" y="439" fill="#c8d3e0" font-size="11">5151.5</text>
<text x="194" y="491" fill="#c8d3e0" font-size="13" font-weight="650" text-anchor="end">list-ops(1M)</text>
<rect x="210" y="478" width="249.2" height="22" rx="3" fill="#4c9be8"/>
<text x="202" y="493" fill="#8b98a8" font-size="11" text-anchor="end">March</text>
<text x="465.2" y="493" fill="#c8d3e0" font-size="11">147.0</text>
<rect x="210" y="506" width="78.8" height="22" rx="3" fill="#e5883a"/>
<text x="202" y="521" fill="#8b98a8" font-size="11" text-anchor="end">OCaml</text>
<text x="294.8" y="521" fill="#c8d3e0" font-size="11">46.5</text>
<rect x="210" y="534" width="2.2" height="22" rx="3" fill="#d0563a"/>
<text x="202" y="549" fill="#8b98a8" font-size="11" text-anchor="end">Rust</text>
<text x="218.2" y="549" fill="#c8d3e0" font-size="11">1.3</text>
<rect x="210" y="562" width="600.0" height="22" rx="3" fill="#9a6fce"/>
<text x="202" y="577" fill="#8b98a8" font-size="11" text-anchor="end">Elixir</text>
<text x="816.0" y="577" fill="#c8d3e0" font-size="11">354.0</text>
<text x="194" y="629" fill="#c8d3e0" font-size="13" font-weight="650" text-anchor="end">simd-sum(5M)</text>
<rect x="210" y="616" width="10.9" height="22" rx="3" fill="#4c9be8"/>
<text x="202" y="631" fill="#8b98a8" font-size="11" text-anchor="end">March</text>
<text x="226.9" y="631" fill="#c8d3e0" font-size="11">4.0</text>
<rect x="210" y="644" width="17.7" height="22" rx="3" fill="#e5883a"/>
<text x="202" y="659" fill="#8b98a8" font-size="11" text-anchor="end">OCaml</text>
<text x="233.7" y="659" fill="#c8d3e0" font-size="11">6.6</text>
<rect x="210" y="672" width="14.2" height="22" rx="3" fill="#d0563a"/>
<text x="202" y="687" fill="#8b98a8" font-size="11" text-anchor="end">Rust</text>
<text x="230.2" y="687" fill="#c8d3e0" font-size="11">5.2</text>
<rect x="210" y="700" width="199.9" height="22" rx="3" fill="#9a6fce"/>
<text x="202" y="715" fill="#8b98a8" font-size="11" text-anchor="end">Elixir</text>
<text x="415.9" y="715" fill="#c8d3e0" font-size="11">74.0</text>
<rect x="210" y="728" width="600.0" height="22" rx="3" fill="#e0b93a"/>
<text x="202" y="743" fill="#8b98a8" font-size="11" text-anchor="end">Python</text>
<text x="816.0" y="743" fill="#c8d3e0" font-size="11">222.2</text>
<rect x="210" y="756" width="7.7" height="22" rx="3" fill="#3aae8f"/>
<text x="202" y="771" fill="#8b98a8" font-size="11" text-anchor="end">NumPy</text>
<text x="223.7" y="771" fill="#c8d3e0" font-size="11">2.9</text>
<text x="194" y="823" fill="#c8d3e0" font-size="13" font-weight="650" text-anchor="end">simd-map(5M)</text>
<rect x="210" y="810" width="24.1" height="22" rx="3" fill="#4c9be8"/>
<text x="202" y="825" fill="#8b98a8" font-size="11" text-anchor="end">March</text>
<text x="240.1" y="825" fill="#c8d3e0" font-size="11">18.5</text>
<rect x="210" y="838" width="11.5" height="22" rx="3" fill="#e5883a"/>
<text x="202" y="853" fill="#8b98a8" font-size="11" text-anchor="end">OCaml</text>
<text x="227.5" y="853" fill="#c8d3e0" font-size="11">8.8</text>
<rect x="210" y="866" width="22.7" height="22" rx="3" fill="#d0563a"/>
<text x="202" y="881" fill="#8b98a8" font-size="11" text-anchor="end">Rust</text>
<text x="238.7" y="881" fill="#c8d3e0" font-size="11">17.4</text>
<rect x="210" y="894" width="600.0" height="22" rx="3" fill="#9a6fce"/>
<text x="202" y="909" fill="#8b98a8" font-size="11" text-anchor="end">Elixir</text>
<text x="816.0" y="909" fill="#c8d3e0" font-size="11">460.3</text>
<rect x="210" y="922" width="210.6" height="22" rx="3" fill="#e0b93a"/>
<text x="202" y="937" fill="#8b98a8" font-size="11" text-anchor="end">Python</text>
<text x="426.6" y="937" fill="#c8d3e0" font-size="11">161.6</text>
<rect x="210" y="950" width="13.7" height="22" rx="3" fill="#3aae8f"/>
<text x="202" y="965" fill="#8b98a8" font-size="11" text-anchor="end">NumPy</text>
<text x="229.7" y="965" fill="#c8d3e0" font-size="11">10.5</text>
<text x="194" y="1017" fill="#c8d3e0" font-size="13" font-weight="650" text-anchor="end">simd-map2(5M)</text>
<rect x="210" y="1004" width="47.2" height="22" rx="3" fill="#4c9be8"/>
<text x="202" y="1019" fill="#8b98a8" font-size="11" text-anchor="end">March</text>
<text x="263.2" y="1019" fill="#c8d3e0" font-size="11">19.7</text>
<rect x="210" y="1032" width="25.9" height="22" rx="3" fill="#e5883a"/>
<text x="202" y="1047" fill="#8b98a8" font-size="11" text-anchor="end">OCaml</text>
<text x="241.9" y="1047" fill="#c8d3e0" font-size="11">10.8</text>
<rect x="210" y="1060" width="46.1" height="22" rx="3" fill="#d0563a"/>
<text x="202" y="1075" fill="#8b98a8" font-size="11" text-anchor="end">Rust</text>
<text x="262.1" y="1075" fill="#c8d3e0" font-size="11">19.2</text>
<rect x="210" y="1088" width="600.0" height="22" rx="3" fill="#9a6fce"/>
<text x="202" y="1103" fill="#8b98a8" font-size="11" text-anchor="end">Elixir</text>
<text x="816.0" y="1103" fill="#c8d3e0" font-size="11">250.3</text>
<rect x="210" y="1116" width="466.9" height="22" rx="3" fill="#e0b93a"/>
<text x="202" y="1131" fill="#8b98a8" font-size="11" text-anchor="end">Python</text>
<text x="682.9" y="1131" fill="#c8d3e0" font-size="11">194.8</text>
<rect x="210" y="1144" width="22.7" height="22" rx="3" fill="#3aae8f"/>
<text x="202" y="1159" fill="#8b98a8" font-size="11" text-anchor="end">NumPy</text>
<text x="238.7" y="1159" fill="#c8d3e0" font-size="11">9.5</text>
<text x="210" y="1252" fill="#5c6875" font-size="11">Generated from committed data by bench/chart.py — bars scaled per benchmark (each group's slowest = full width).</text>
</svg>